<svg xmlns="http://www.w3.org/2000/svg" xmlns:xlink="http://www.w3.org/1999/xlink" viewBox="0 0 1480 292.1"><defs><path id="a" d="M40 0h1440v292.1H40z"/></defs><clipPath id="b"><use xlink:href="#a" overflow="visible"/></clipPath><g fill="none" stroke="#559CC9" stroke-width="1.472" stroke-linecap="round" stroke-linejoin="round" clip-path="url(#b)"><path d="M146.5 400.7c2.4 4.2 263.2-152 263.2-152L148.7 404s252.8-169.5 263-151.9c0 0-262.8 152.4-260.1 157 0 0 254.6-166.6 263.1-151.9 3.5 6.1-261.8 154.1-261.8 154.1C164.4 431.1 416 259.6 416 259.6c8.6 14.9-260.4 155.7-260.4 155.7 4.5 7.9 262.5-151.5 262.5-151.5 1 1.7-266.1 144.9-261 153.8 0 0 252.7-167.9 262.2-151.4C430 284.8 148.8 402.9 158.1 419 169.2 438.2 420 267.8 420 267.8S150.5 405.4 159 420.2c4.5 7.8 261.6-151 261.6-151 9 15.6-257.2 156.8-257.2 156.8s253-162 259.9-150.1c3.3 5.7-261.9 145.1-257.2 153.3 5.1 8.8 258.5-149.3 258.5-149.3 1.6 2.8-254.6 153.7-254.6 153.7 8 13.9 256.5-148.1 256.5-148.1 7.6 13.2-253.7 151-253.7 151 10.7 18.6 254.3-147.7 254.7-147.1.2.3-256.4 139.9-249.2 152.3l251.1-145c.7 1.2-249.4 146.5-249.4 146.5 7.3 12.7 250-144.1 250-144.1 1.9 3.2-252.4 138.2-247.9 145.9l248.4-143.4-245.6 145.8c5.9 10.2 239.2-154.5 246.3-142.2 0 0-243.8 141.4-240.7 146.6l248-143.2c3.1 5.4-247 142.1-245.3 145.1 7.7 13.4 256.4-148 256.4-148C458 320.2 193.7 452.9 194.9 455c6.2 10.7 249.5-167.8 259.8-150L195.9 455.7S446.3 286 457.2 304.9c2.3 4-255.5 154.6-255.5 154.6L469 305.1S199.4 450.5 206.2 462.3c2.5 4.4 270.2-156 270.2-156 6.6 11.3-276 143.5-268.1 157.2 8.9 15.4 266.5-164.4 271.1-156.5 0 0-273.7 148.1-267.8 158.3 5.8 10 272-157 272-157L213 466l272.3-157.2s-267.4 158.7-266.7 160c1.2 2.1 272.8-157.5 272.8-157.5 4.1 7.2-280.1 142.1-270.6 158.5 4.1 7.2 265.1-170.7 272.7-157.5 0 0-272.9 150-267.2 159.8L498.4 315c6.6 11.4-268 158.7-268 158.7L501.8 317l-270 157.1s262.6-171 271-156.5c11.4 19.7-276 140.7-266 158.1 10.7 18.5 258.8-173.9 269.4-155.5.1.2-268.3 143.1-259.6 158.2 0 0 254.5-172.1 265.4-153.2 0 0-269.7 137.2-259.7 154.5 2.1 3.7 255.6-163.4 262.5-151.5 9.2 16.1-269 137.9-261 151.8 5 8.6 261.3-151.6 261.6-151 8.4 14.5-256.6 144.5-252 152.4 7.1 12.3 251.2-155.8 255.9-147.7 0 0-256.5 143.3-253.8 147.9 10.4 18 254.6-147 254.6-147S266.4 479 268.1 481.8c6.4 11.2 252.4-146.6 252.8-146 1.1 2-247.2 141.7-244.5 146.3 4.9 8.5 239.5-155.5 247-142.6 0 0-237.3 131.5-231.2 142.1 6 10.3 234.7-135.5 234.7-135.5s-228.4 121-220.9 134c0 0 92.4-54.7 93-53.7.1.2-86.2 52.5-86.2 52.5l81.6-47.1s-61.7 41.6-61.6 41.7c0 0 45.6-28.8 46.7-26.9 0 0-32.5 18.1-31.1 20.5.2.3 17.1-10.7 17.4-10.1"/><path d="M50 393.2c6.9 11.9 320.9-185.3 320.9-185.3 5.2 9-320.6 185-319.3 187.3 2.5 4.3 321.6-185.7 321.6-185.7S45.7 383.2 55.1 399.5c0 0 320.7-189.7 322.6-186.3 0 0-331.4 170.5-321.8 187.2 3.7 6.4 316.2-197.8 322.8-186.4C387.2 228.7 61 405.3 61 405.3c3.1 5.4 321.5-189.4 323.1-186.6 0 0-325.4 177.7-317.9 190.6 0 0 315.9-197.8 322.6-186.2L73.6 413.6c6.5 11.3 310.4-202.5 320.5-185L81.4 416.8l317.1-183.1c4.7 8.2-309 185.2-309 185.2l312.7-180.6c7.9 13.8-299 181.6-299 181.6 5.8 10 303.5-175.2 303.5-175.2S110 396.7 121.4 416.5l18.2-10.5"/><path d="M9.2 372.6c.2.4 7-4.1 7-4.1s-10.4 7-10.2 7.3c.5.8 14.2-9.1 14.6-8.4L1.3 384.2c.3.6 28.7-16.6 28.7-16.6L0 392.7l37.9-21.9C38.7 372.2 0 395 0 395c.1.1 39-24.4 39.8-23 0 0-40.2 23.6-39.1 25.5 0 0 348.6-205.3 350.3-202.3C353.2 199 3 403.4 3 403.4l354.4-204.6c6 10.4-355 202.9-351.5 208.9 7 12.1 356.4-205.8 356.4-205.8L9.3 411s356.4-207.9 357.3-206.3c14.2 24.5-353.1 209-353.1 209 6.6 11.4 357-206.1 357-206.1 9.7 16.8-355.4 197-348.7 208.8 1.1 1.9 24.7-16.6 25.7-14.9 0 0-15.4 13.2-15 13.9 0 0 8.5-5 8.5-4.9"/><path d="M64.7 308.7s11-6.7 11.2-6.5c0 0-27.7 21.6-26.8 23l252.1-145.5L45 332.8c6.7 11.5 252.7-170.4 263.3-152 10.1 17.4-269.8 154-266.3 160 9.4 16.3 272.9-160.9 274.3-158.4 3.7 6.5-275.7 164-275.7 164S312 166.6 322 183.8c0 0-291.1 154.8-282.4 169.8l290.1-167.5c9.5 16.4-290.3 173.6-290.3 173.6s293.1-177.5 296.7-171.3C346.3 206 27.2 342.1 39.6 363.7c0 0 290.8-190.7 300.6-173.6L40 366.9s293.3-193.1 303.6-175.3c0 0-306.2 171.8-303.5 176.4 5.4 9.4 304-176.9 304.6-175.9l-304 180.2c1.4 2.4 303.2-187.1 308.4-178M197.6 203.7s16.8-10.8 17.3-10c.8 1.4-41.6 25.7-39.9 28.5 0 0 65.5-40.3 66.6-38.4"/><path d="M94.2 202.3s4.9-3.3 5.1-2.9l-9.2 9.5c.4.6 16.9-9.8 16.9-9.8.7 1.2-18.1 13.6-17.7 14.2l21.9-12.6-21.5 15.5 23.9-13.8s-23.5 15.2-23.4 15.2l24.5-14.1S92.1 221 93 222.6c1 1.8 24.5-14.2 24.5-14.2S89.2 226.6 90 227.8c.6 1 31.5-18.2 31.5-18.2s-41.2 30.2-40.4 31.7c0 0 55.9-33.4 56.4-32.5 1.5 2.6-60.1 42.6-60.1 42.6.8 1.4 69.9-42 70.6-40.8l-71 42.5c1.2 2.1 70.7-45.2 72.6-41.9 1.3 2.2-73.9 51.3-73.9 51.3 1.3 2.2 82.6-47.7 82.6-47.7l-82.5 53.9c2.8 4.8 87.8-50.7 87.8-50.7s-88 56.6-86.8 58.6c3.8 6.6 93.2-53.8 93.2-53.8l-91.5 60C83.6 291.6 247.1 168 254.6 181c0 0-178.7 98.1-175.2 104.2C82.9 291.3 261.7 180 261.7 180L79.9 286.6c7.7 13.3 185.4-107 185.4-107 5.3 9.2-183.1 112-183.1 112S273 170.7 277.7 178.7l-193 117.4c.3.5 203.4-117.4 203.4-117.4L85.7 298.2s205.4-121.5 206.6-119.3M1156.4 284.8s8.3-5.6 8.6-5l-16.6 13.7c.6 1.1 28.2-16.3 28.2-16.3 1.1 1.9-31.9 21-31.3 22.1l37.9-21.9-39.2 25.7 43.2-24.9s-43.6 26.8-43.6 26.9l45.6-26.3s-48.3 30.2-46.4 33.4c2.2 3.9 53-30.6 53-30.6s-54.3 31.6-52.9 34.1c1.1 1.8 55.8-32.2 55.8-32.2s-55.5 37.9-54.4 39.8c0 0 59.7-35.7 60.3-34.8 1.4 2.5-57.6 41.2-57.6 41.2.7 1.2 61.2-36.8 61.9-35.7l-61.3 36.8c1 1.8 60.4-38.6 62-35.8 1 1.7-57.5 41.8-57.5 41.8.9 1.6 60.6-35 60.6-35l-56.5 38.9c1.8 3.2 57.8-33.4 57.8-33.4s-51.5 36.6-50.8 37.9c2.1 3.6 51.1-29.5 51.1-29.5l-43.3 32.2c1.2 2.1 40-27.2 41.8-24.1 0 0-38.4 23.4-37.7 24.8.7 1.2 36.2-20.9 36.2-20.9l-33.6 21.1c1.3 2.3 32.4-18.7 32.4-18.7.6 1-18 16.1-18 16.1s8.4-5.3 8.6-5M396.3 118.4s6.7-4.6 7-4.1l-13.4 11.9c.5.9 23.2-13.4 23.2-13.4.9 1.6-25.6 17.6-25 18.5l30.5-17.6-31.1 21 34.3-19.8-34.5 21.6 36.1-20.8s-36.9 24.5-35.4 27.1c1.7 3 40.5-23.4 40.5-23.4s-40.7 24.5-39.6 26.4c.8 1.4 41.7-24.1 41.7-24.1s-39 29.1-38.2 30.4c0 0 41.6-24.9 42-24.2.9 1.6-36.9 29.2-36.9 29.2.4.8 38.3-23 38.7-22.3l-37.5 23.1c.6 1.1 36.6-23.4 37.6-21.7.5.9-28.8 25.2-28.8 25.2.4.7 27.4-15.8 27.4-15.8l-14.6 14.7c.2.4 7-4.1 7-4.1M188.1 33.7s6.5-4.4 6.8-3.9L182 41.4c.5.8 22.3-12.9 22.3-12.9.9 1.5-24.6 17-24 17.9l29.4-17-29.8 20.3 33-19-33.1 20.8 34.6-20s-35.1 23.7-33.7 26.1c1.6 2.8 38.6-22.3 38.6-22.3s-38.6 23.5-37.6 25.2c.8 1.3 39.6-22.8 39.6-22.8s-36.4 27.7-35.7 29c0 0 38.7-23.1 39-22.5.9 1.5-33.4 27.2-33.4 27.2.4.7 34.2-20.5 34.5-19.9L192.4 72c.5 1 32.3-20.7 33.2-19.2.4.8-22.4 21.5-22.4 21.5.3.5 19.2-11.1 19.2-11.1L210.5 73c.2.4 6.8-3.9 6.8-3.9M1095.3 226.5s6-4.1 6.3-3.6l-11.5 10.8c.4.8 20.2-11.7 20.2-11.7.8 1.4-22 15.7-21.5 16.5l26.4-15.2-26.6 18.4 29.4-17-29.3 18.6 30.6-17.7s-30.3 21.3-29 23.4c1.4 2.4 33.2-19.2 33.2-19.2s-32.6 20.4-31.8 21.9c.6 1.1 33.4-19.3 33.4-19.3s-28.7 23.5-28.1 24.6c0 0 29.9-17.9 30.2-17.4.6 1-22 20.6-22 20.6.2.4 20.6-12.4 20.8-12l-18.7 12.2c.3.5 17.2-11 17.7-10.2.2.3-10.7 9.2-10.7 9.2.1.2 6.3-3.6 6.3-3.6M354.3 140.8s5.3-3.6 5.5-3.2l-9.6 9.7c.4.7 17.5-10.1 17.5-10.1.7 1.2-18.7 13.9-18.3 14.6l22.4-12.9-22.1 15.8 24.5-14.1-24 15.6 25.1-14.5s-23.4 17.9-22.4 19.6c1.1 1.9 25.4-14.7 25.4-14.7s-23.8 15.8-23.2 16.9c.5.8 24-13.8 24-13.8s-15.5 16.4-15.1 17.1c0 0 13.3-7.9 13.4-7.7.2.4-8.5 7-8.5 7 .1.1 5.4-3.3 5.5-3.2M1257.9 12.2s5.3-3.6 5.5-3.2l-9.6 9.7c.4.7 17.5-10.1 17.5-10.1.7 1.2-18.7 13.9-18.3 14.6l22.4-12.9-22.1 15.8 24.5-14.1-24 15.6 25.1-14.5s-23.4 17.9-22.4 19.6c1.1 1.9 25.4-14.7 25.4-14.7s-23.8 15.8-23.2 16.9c.5.8 24-13.8 24-13.8s-15.5 16.4-15.1 17.1c0 0 13.3-7.9 13.4-7.7.2.4-8.5 7-8.5 7 .1.1 5.4-3.3 5.5-3.2M401.1 53.2s4.2-2.9 4.4-2.5l-6.9 8.2c.3.5 13-7.5 13-7.5.5.8-12.7 10.7-12.4 11.2l15.4-8.9-14.2 11.2 15.5-9L401.4 66l15-8.7s-8 10.3-7.6 11c.3.4 6-3.5 6-3.5M169.9 79.6s3.3-2.2 3.4-2l-4.8 7c.2.4 9.8-5.7 9.8-5.7.4.6-8.5 8.5-8.3 8.8l10.2-5.9-7.7 7.5 7.8-4.5-5.2 4.7 4.3-2.5M66.7 197.4s3.3-2.3 3.5-2l-4.7 6.9c.2.4 9.6-5.5 9.6-5.5.3.6-8.1 8.2-7.9 8.6l9.6-5.6-6.9 7 6.7-3.9s-4.5 3.9-4.4 3.9l3.3-1.9M1240.7 78.6s3.3-2.2 3.4-2l-4.6 6.9c.2.4 9.5-5.5 9.5-5.5.3.6-8 8.2-7.8 8.5l9.6-5.5-6.8 7 6.7-3.9-4.5 3.9 3.4-2M1222.4 267.5s2.5-1.7 2.7-1.5l-2.6 5.7c.1.2 6.2-3.6 6.2-3.6.2.3-3.1 4.9-3 5l2.7-1.6M228.5 69.7s2.5-1.7 2.6-1.5l-2.6 5.7c.1.2 6.2-3.6 6.2-3.6.2.3-3.1 4.9-3 5.1l2.6-1.5M412.7 23.9s2.2-1.5 2.3-1.3l-1.6 5.1c.1.2 4.6-2.7 4.6-2.7.1.2-2.8 3.1-2.7 3.2l2.3-1.3"/></g></svg>