<svg xmlns="http://www.w3.org/2000/svg" xmlns:xlink="http://www.w3.org/1999/xlink" viewBox="0 0 126.7 168.8"><symbol id="c" viewBox="-0.5 -168.8 128 168.8"><linearGradient id="a" gradientUnits="userSpaceOnUse" x1="-654.3" y1="-988.403" x2="-654.3" y2="-919.903" gradientTransform="scale(1.00004) rotate(-4 10741.6 -9800.1)"><stop offset="0" stop-color="#559CC9"/><stop offset=".246" stop-color="#84B394"/><stop offset=".609" stop-color="#C5D24B"/><stop offset=".87" stop-color="#EDE51D"/><stop offset="1" stop-color="#FDED0B"/></linearGradient><path fill="url(#a)" d="M9.2-157.9c-4.8-5.8-9.2-1.5-9.2-1.5s2.1-6.7 8.1-8.6c6.2-1.9 11.2-.6 15.2 3.4 4.1 4 5.5 8.6 5.3 10.9 0 0 4.5-7 11.5-5.6 0 0-4.7 3.4-1.2 8.5 3.6 5.1 10.8 2.6 16.7 9.9 5 6.3 5.6 12.6 4.6 18.9-1.1 6-5.5 10.4-5.5 10.4 2.3-7.4-.8-12.9-1.9-14.4-1.1-1.5-2.5-3.1-5.8-4.5s-6.7-1.4-12.1-2.9-7.8-8.3-7.8-8.3-3.3 8.2 2.2 16c0 0 3 4.3 8.7 4.4 0 0-1.6 2.8-4.9 3.6-4.2 1-6-1.3-6-1.3-1 4 2.1 8.2 2.1 8.2 5.7 7.8 15.9 6.6 15.9 6.6s-5.8 3.8-15 1.6c-9.1-2.1-13.1-7.4-14.6-9.5-1.5-2.1-5.8-9.8-5.4-20 .2-10.5 1.9-22.2-.9-25.8"/><path fill="#3D6D98" d="M18.4-69.9c-7.8-11-12-24.9-12-24.9C23-78.8 38.3-80 44.6-81.4c2.1 6.6 10.2 22.7 12 25.8-12.8 6.5-30.6-3.7-38.2-14.3zm77-14.2C88-93 81.1-99.1 75-103.8c3.2-5.5 9.2-20-.7-41.1 0 0 11.8 8.4 19.6 19.4 7.6 10.6 11.6 30.9 1.5 41.4z"/><linearGradient id="b" gradientUnits="userSpaceOnUse" x1="-347.167" y1="-540.942" x2="-303.238" y2="-566.305" gradientTransform="rotate(-2 12968.9 -11090.13) scale(1.00004)"><stop offset="0" stop-color="#559CC9"/><stop offset=".335" stop-color="#5499C6"/><stop offset=".564" stop-color="#5091BD"/><stop offset=".759" stop-color="#4883AE"/><stop offset=".898" stop-color="#41749E"/></linearGradient><path fill="url(#b)" d="M100.6-35.4c-3.4 2.5-4.2 7.2-1.7 10.6 2.5 3.4 7.1 4.1 10.5 1.7s4.2-7.2 1.7-10.6c-2.5-3.5-7.1-4.2-10.5-1.7m-5.2-48.7c4.1 4.7 8.6 10.3 13.3 16.7C132.3-34.9 125.9 0 125.9 0S91.4-4.6 68.2-37.5c-4.7-6.6-8.4-12.6-11.6-18.1-1.9-3-9.9-19.1-12-25.8-1.7-5.1-2.1-7.9-2.1-7.9 2.9-4.7 11.7-11.2 11.7-11.2s8.8-6.5 14-7.9c0 0 2.5 1.2 6.8 4.6 6.1 4.7 13 10.8 20.4 19.7"/></symbol><use xlink:href="#c" width="128" height="168.8" x="-.5" y="-168.8" transform="matrix(1 0 0 -1 0 0)" overflow="visible"/></svg>