<?xml version="1.0" encoding="utf-8"?>
<!-- Generator: Adobe Illustrator 19.0.1, SVG Export Plug-In . SVG Version: 6.00 Build 0)  -->
<!DOCTYPE svg PUBLIC "-//W3C//DTD SVG 1.1//EN" "http://www.w3.org/Graphics/SVG/1.1/DTD/svg11.dtd">
<svg version="1.1" xmlns="http://www.w3.org/2000/svg" xmlns:xlink="http://www.w3.org/1999/xlink" x="0px" y="0px"
	 viewBox="0 0 198.5 203.2" enable-background="new 0 0 198.5 203.2" xml:space="preserve">
<symbol  id="logo-shape" viewBox="0 -203.2 198.5 203.2">
	<g>
		<g>
			<g>
				<g>
					<path fill="#FDED0B" d="M29.5-88.6v-1.4h-5.4v1.7c0,4.6-1.7,7.2-5.8,7.2c-4.1,0-5.8-2.7-5.8-7.2c0-11.4,17-12.5,17-26.7
						c0-7.7-3.7-12.7-11.4-12.7s-11.4,5-11.4,12.7v2.9H12v-3.2c0-4.6,1.9-7.2,5.9-7.2c4.1,0,5.9,2.7,5.9,7.2c0,11.3-17,12.4-17,26.7
						c0,7.8,3.6,12.7,11.2,12.7C25.8-75.9,29.5-80.9,29.5-88.6z"/>
					<path fill="#FDED0B" d="M41.8-127.1v45.6h-9.3v5.1h24.3v-5.1h-9.3v-45.6H41.8z"/>
					<path fill="#FDED0B" d="M63.5-116.9l-2-10.2h-5.2L66-76.4h8.2l9.7-50.7h-5.6l-2,10.2H63.5z M64.2-112h11.3l-5.7,29.3L64.2-112z
						"/>
					<path fill="#FDED0B" d="M99.6-76.4c8,0,11.3-4.1,11.3-11.6v-4.1c0-5.6-2-9.1-6.3-10.4c4.6-1.4,6.4-5.1,6.4-10.6v-7.9
						c0-2.2,0.1-4.3,1-6.1h-5.7c-0.7,1.4-0.9,2.8-0.9,6.2v8c0,5.7-2.7,7.5-7.4,7.5h-4v-21.7h-5.6v50.7H99.6z M98.2-100.3
						c4.5,0,7.2,1.4,7.2,7v4.9c0,4.6-1.7,7-5.9,7H94v-18.8H98.2z"/>
					<path fill="#FDED0B" d="M124.2-127.1v45.6h-9.3v5.1h24.3v-5.1h-9.3v-45.6H124.2z"/>
					<path fill="#FDED0B" d="M148.3-115.1c0-4.6,1.8-7.3,5.9-7.3c4.1,0,5.9,2.8,5.9,7.3v38.8h5.3v-38.5c0-7.7-3.5-12.8-11.4-12.8
						c-7.8,0-11.3,5.1-11.3,12.8v38.5h5.6V-115.1z"/>
					<path fill="#FDED0B" d="M182.1-76.4c8,0,11.4-4.7,11.4-12.4v-6.1c0-8-3.8-12.2-11.8-12.2h-5v-20H171v50.7H182.1z M181.6-102
						c4.2,0,6.2,2,6.2,6.8v6.7c0,4.6-1.7,7-5.8,7h-5.4V-102H181.6z"/>
				</g>
			</g>
			<g>
				<g>
					<path fill="#FDED0B" d="M27-20.8v-0.9h-1.6v1c0,6-2.2,11.1-8.8,11.1c-6.7,0-8.9-5-8.9-11c0-13,19.4-12.6,19.4-26.4
						c0-7-2.9-12.6-10.6-12.6C8.8-59.6,5.9-54.1,5.9-47v2.5h1.5v-2.5c0-6.2,2.4-11,9.1-11c6.7,0,9.1,4.9,9.1,11
						c0,12.8-19.4,12.4-19.4,26.4c0,7.4,3.1,12.5,10.4,12.5C24.2-8.2,27-13.9,27-20.8z"/>
					<path fill="#FDED0B" d="M37-47.3l-3-12h-1.4L44.8-8.5H47l12.5-50.8H58l-3,12H37z M37.3-45.9h17.5l-8.8,35.5L37.3-45.9z"/>
					<path fill="#FDED0B" d="M86.2-21v-3.9h-1.6v4c0,6.2-2.3,11.3-9,11.3c-6.7,0-9.1-5.1-9.1-11.3v-25.9c0-6.2,2.3-11.2,9.1-11.2
						c6.7,0,9,5.1,9,11.2v5.6h1.6v-5.5c0-7-2.9-12.8-10.6-12.8c-7.7,0-10.6,5.8-10.6,12.8V-21c0,7,2.9,12.8,10.6,12.8
						C83.3-8.2,86.2-14,86.2-21z"/>
				</g>
			</g>
			<g>
				<g>
					<path fill="#FDED0B" d="M105-168.5v-1.4H90.1v-23.5h17.7v-1.5H88.5v50.7h19.3v-1.5H90.1v-22.7H105z"/>
					<path fill="#FDED0B" d="M126.6-170l-11.7-24.9h-1.7l12.4,26.4l-11.5,24.3h1.7l10.9-23l10.9,23h1.6l-11.5-24.3l12.3-26.4h-1.7
						L126.6-170z"/>
					<path fill="#FDED0B" d="M155.6-144.2c7.8,0,10.5-5.1,10.5-12.2v-5.1c0-8-3.6-11.9-11.7-11.9h-7.2v-21.5h-1.6v50.7H155.6z
						 M154.5-171.9c7.1,0,10.1,3.1,10.1,10.3v5.2c0,6.2-2.1,10.6-8.9,10.6h-8.4v-26.1H154.5z"/>
					<path fill="#FDED0B" d="M171.6-156.7c0,7.1,3,12.8,10.7,12.8c7.8,0,10.9-5.7,10.9-12.8v-25.8c0-7.1-3-12.8-10.9-12.8
						c-7.7,0-10.7,5.7-10.7,12.8V-156.7z M173.2-182.5c0-6.2,2.4-11.3,9.1-11.3c6.8,0,9.3,5.1,9.3,11.3v25.9
						c0,6.2-2.5,11.3-9.3,11.3c-6.7,0-9.1-5.1-9.1-11.3V-182.5z"/>
				</g>
			</g>
			<g>
				<g>
					<path fill="none" stroke="#559CC9" stroke-width="1.4726" stroke-linecap="round" stroke-linejoin="round" d="M101.4-8.7
						c0,0,0.7,0.4,0.7,0.4l-0.7-3.6c0,0,6.3,3.7,6.3,3.6c0,0-6.3-8.2-6.3-8.3c0,0,14.3,8.3,14.3,8.3c0.4-0.7-14.3-10.2-14.3-10.2
						c0.1-0.2,17.5,10.6,17.7,10.2c0.5-0.9-17.7-14.8-17.7-14.8c0.3-0.5,25.7,14.8,25.7,14.8c0.2-0.4-25.9-16.9-25.7-17.2l29.8,17.2
						c0.1-0.1-30.4-18.7-29.8-19.7l34.1,19.7c0.8-1.3-34.6-23.5-34.1-24.3c0.5-0.9,41.7,24.9,42.1,24.3c0.6-1.1-42.1-29.4-42.1-29.4
						c0.2-0.4,50.9,29.4,50.9,29.4c0.9-1.6-51.2-33.6-50.9-34.1c1.5-2.6,59.1,34.1,59.1,34.1s-59.7-38-59.1-39.1
						c0.5-0.8,67.7,39.1,67.7,39.1c0.2-0.4-67.7-42.8-67.7-42.8c0.5-0.9,74.2,42.8,74.2,42.8c0.5-0.8-74.2-47.9-74.2-47.9
						c0.3-0.6,83,47.9,83,47.9c0.8-1.4-80.9-51-80.9-51c2.1-3.6,88.4,51.1,88.4,51.1c1.2-2.1-85.1-48.4-83.6-51
						c2.1-3.7,84.1,48.7,84.2,48.6c0.2-0.4-79.2-47.2-78.4-48.6c0,0,77,47.8,78.4,45.3c1.8-3.1-74.4-44-73.6-45.3
						c1-1.7,72.2,45,73.6,42.5c0.6-1-70-41-69.1-42.5c0,0,67.6,42.5,69.1,39.9c0.7-1.2-66.9-38.4-66-39.9l66,38.1l-63-38.1l63,36.4
						c0.3-0.5-58.3-36.4-58.3-36.4c0,0,58.3,33.6,58.3,33.6s-51.6-33.2-51.3-33.6c0.1-0.3,50.8,30.5,51.3,29.6l-45.8-29.6
						c0,0,44.8,28.2,45.8,26.4l-37.8-26.4c0.1-0.1,37.8,21.8,37.8,21.8S158-59.1,158.1-59.3c0.4-0.7,34.3,19.8,34.3,19.8
						c0.5-0.8-30.6-18.8-30-19.8c0.7-1.2,30,17.3,30,17.3c0.5-0.9-23.1-16.4-22.5-17.3c0.3-0.6,22.5,13,22.5,13s-18.8-12.7-18.6-13
						c0.1-0.1,18.6,10.7,18.6,10.7c0,0-15.5-10.7-15.5-10.7s15.3,9.1,15.5,8.9c0,0-9.9-8.6-9.7-8.9l9.7,5.6c0.1-0.2-3.4-5.6-3.4-5.6
						c0,0,3.4,2,3.4,2"/>
				</g>
			</g>
			<g>
				<g>
					<path fill="none" stroke="#559CC9" stroke-width="1.4726" stroke-linecap="round" stroke-linejoin="round" d="M7.9-144.3
						c0,0,0.7,0.4,0.7,0.4c0.1-0.2-0.8-5-0.7-5c0-0.1,8.7,5,8.7,5s-8.7-6.8-8.7-6.9c0,0,11.9,6.9,11.9,6.9L7.9-155.1l19.3,11.2
						c0.5-0.8-19.7-13.4-19.3-13.9c0,0,23.9,14.3,24.1,13.9L7.9-161.3l30.2,17.4c0,0-31-19.3-30.2-20.7c0.9-1.5,35.9,20.7,35.9,20.7
						c0.6-1.1-35.9-23.2-35.9-23.2c0.4-0.7,40.2,23.2,40.2,23.2S7.3-170.4,7.9-171.5c0.4-0.7,47.2,28.8,47.8,27.6
						c0.6-1.1-47.8-32.3-47.8-32.3l55.9,32.3c1.2-2-56.2-34.2-55.9-34.5c0.3-0.6,59.8,34.5,59.8,34.5c0.3-0.5-60.4-37.7-59.8-38.6
						l65.4,37.8c1.2-2.1-65.4-39.7-65.4-39.7c1.1-2,64.9,38.7,65.4,37.8L7.9-188.2c0,0,65.3,37.9,65.4,37.8
						c0.1-0.3-65.4-42.1-65.4-42.1c0.6-1,65.1,38.3,65.4,37.8c1.7-2.9-65.6-37.7-64.2-40.1c1.6-2.8,64,37.3,64.2,37
						c1.3-2.3-61.2-37-61.2-37l61.2,35.3c1-1.7-54.4-35.3-54.4-35.3s53,33.9,54.4,31.4c1.3-2.2-48-31.4-48-31.4
						c0.1-0.1,47.7,28.2,48,27.7l-44.5-27.7c0.6-1,44.5,25.7,44.5,25.7c0.9-1.5-40.4-24.4-39.7-25.7L73.3-172
						c0,0-37.3-21.7-36.6-22.9c0.8-1.3,36.6,21.1,36.6,21.1l-28.5-21.1l28.5,16.4c0.5-0.9-20.2-16.1-20-16.4
						c0.5-0.9,19.8,12,20,11.6c0,0-15.9-11-15.6-11.6c0.1-0.2,15.6,9,15.6,9c0.1-0.1-12.9-8.4-12.6-9c0,0,12.3,7.7,12.6,7.3
						c0,0-6.5-6.9-6.3-7.3c0-0.1,6.3,3.7,6.3,3.7c0,0-1.7-3.6-1.7-3.6c0,0,1.7,1,1.7,1"/>
				</g>
			</g>
		</g>
	</g>
	<g>
		<g opacity="0.5">
			<path fill="#559CC9" d="M0-67c0,0,3.1,0.1,8.5,0.1c5.4,0.1,13.2,0.2,22.5,0.3c9.3,0.1,20.2,0.1,31.8,0.2c11.6,0,24,0.1,36.4,0.1
				c12.4,0,24.8-0.1,36.4-0.1c11.6,0,22.5-0.2,31.8-0.2c9.3-0.1,17.1-0.2,22.5-0.3c5.4-0.1,8.5-0.1,8.5-0.1s-3.1-0.1-8.5-0.1
				c-5.4-0.1-13.2-0.2-22.5-0.3c-9.3-0.1-20.2-0.2-31.8-0.2c-11.6,0-24-0.1-36.4-0.1c-12.4,0-24.8,0.1-36.4,0.1
				c-11.6,0.1-22.5,0.2-31.8,0.2c-9.3,0.1-17.1,0.2-22.5,0.3C3.1-67.1,0-67,0-67z"/>
		</g>
		<g opacity="0.5">
			<path fill="#559CC9" d="M0.4-0.7c0,0,3.1,0.1,8.5,0.1C14.3-0.5,22-0.4,31.3-0.3C40.6-0.3,51.4-0.2,63-0.1C74.6-0.1,86.9,0,99.3,0
				c12.4,0,24.7-0.1,36.3-0.1c11.6,0,22.4-0.2,31.7-0.2c9.3-0.1,17-0.2,22.4-0.3c5.4-0.1,8.5-0.1,8.5-0.1s-3.1-0.1-8.5-0.1
				c-5.4-0.1-13.1-0.2-22.4-0.3c-9.3-0.1-20.1-0.2-31.7-0.2c-11.6,0-23.9-0.1-36.3-0.1C86.9-1.4,74.6-1.4,63-1.4
				C51.4-1.3,40.6-1.2,31.3-1.1C22-1,14.3-0.9,8.9-0.9C3.5-0.8,0.4-0.7,0.4-0.7z"/>
		</g>
		<g opacity="0.5">
			<path fill="#559CC9" d="M0.4-202.5c0,0,3.1,0.1,8.5,0.1c5.4,0.1,13.1,0.2,22.4,0.3c9.3,0.1,20.1,0.1,31.7,0.2
				c11.6,0,23.9,0.1,36.3,0.1c12.4,0,24.7-0.1,36.3-0.1c11.6,0,22.4-0.2,31.7-0.2c9.3-0.1,17-0.2,22.4-0.3c5.4-0.1,8.5-0.1,8.5-0.1
				s-3.1-0.1-8.5-0.1c-5.4-0.1-13.1-0.2-22.4-0.3c-9.3-0.1-20.1-0.2-31.7-0.2c-11.6,0-23.9-0.1-36.3-0.1c-12.4,0-24.7,0.1-36.3,0.1
				c-11.6,0.1-22.4,0.2-31.7,0.2c-9.3,0.1-17,0.2-22.4,0.3C3.5-202.5,0.4-202.5,0.4-202.5z"/>
		</g>
		<g opacity="0.5">
			<path fill="#559CC9" d="M0-134.7c0,0,3.1,0.1,8.5,0.1c5.4,0.1,13.2,0.2,22.5,0.3c9.3,0.1,20.2,0.1,31.8,0.2
				c11.6,0,24,0.1,36.4,0.1c12.4,0,24.8-0.1,36.4-0.1c11.6,0,22.5-0.2,31.8-0.2c9.3-0.1,17.1-0.2,22.5-0.3c5.4-0.1,8.5-0.1,8.5-0.1
				s-3.1-0.1-8.5-0.1c-5.4-0.1-13.2-0.2-22.5-0.3c-9.3-0.1-20.2-0.2-31.8-0.2c-11.6,0-24-0.1-36.4-0.1c-12.4,0-24.8,0.1-36.4,0.1
				c-11.6,0.1-22.5,0.2-31.8,0.2c-9.3,0.1-17.1,0.2-22.5,0.3C3.1-134.8,0-134.7,0-134.7z"/>
		</g>
	</g>
</symbol>
<g id="Layer_2" display="none">
</g>
<g id="new-facebook-event-banner-template_x5F_714x264_xA0_Image_1_">
</g>
<g id="Layer_3">
</g>
<g id="Hide_before_exporting">
</g>
<g id="Layer_5">
</g>
<g id="Layer_6">
	
		<use xlink:href="#logo-shape"  width="198.5" height="203.2" id="XMLID_6_" x="0" y="-203.2" transform="matrix(1 0 0 -1 0 0)" overflow="visible"/>
</g>
</svg>
