<?xml version="1.0" encoding="utf-8"?>
<!-- Generator: Adobe Illustrator 19.0.1, SVG Export Plug-In . SVG Version: 6.00 Build 0)  -->
<!DOCTYPE svg PUBLIC "-//W3C//DTD SVG 1.1//EN" "http://www.w3.org/Graphics/SVG/1.1/DTD/svg11.dtd">
<svg version="1.1" xmlns="http://www.w3.org/2000/svg" xmlns:xlink="http://www.w3.org/1999/xlink" x="0px" y="0px"
	 viewBox="0 0 126.7 168.8" enable-background="new 0 0 126.7 168.8" xml:space="preserve">
<symbol  id="rocket" viewBox="-0.5 -168.8 128 168.8">
	<g>
		
			<linearGradient id="SVGID_1_" gradientUnits="userSpaceOnUse" x1="-654.2996" y1="-988.4026" x2="-654.2996" y2="-919.9028" gradientTransform="matrix(0.9973 -7.393356e-02 7.393356e-02 0.9973 753.9531 767.3445)">
			<stop  offset="0" style="stop-color:#559CC9"/>
			<stop  offset="0.2456" style="stop-color:#84B394"/>
			<stop  offset="0.6086" style="stop-color:#C5D24B"/>
			<stop  offset="0.8695" style="stop-color:#EDE51D"/>
			<stop  offset="1" style="stop-color:#FDED0B"/>
		</linearGradient>
		<path fill="url(#SVGID_1_)" d="M9.2-157.9c-4.8-5.8-9.2-1.5-9.2-1.5s2.1-6.7,8.1-8.6c6.2-1.9,11.2-0.6,15.2,3.4
			c4.1,4,5.5,8.6,5.3,10.9c0,0,4.5-7,11.5-5.6c0,0-4.7,3.4-1.2,8.5c3.6,5.1,10.8,2.6,16.7,9.9c5,6.3,5.6,12.6,4.6,18.9
			c-1.1,6-5.5,10.4-5.5,10.4c2.3-7.4-0.8-12.9-1.9-14.4c-1.1-1.5-2.5-3.1-5.8-4.5c-3.3-1.4-6.7-1.4-12.1-2.9s-7.8-8.3-7.8-8.3
			s-3.3,8.2,2.2,16c0,0,3,4.3,8.7,4.4c0,0-1.6,2.8-4.9,3.6c-4.2,1-6-1.3-6-1.3c-1,4,2.1,8.2,2.1,8.2c5.7,7.8,15.9,6.6,15.9,6.6
			s-5.8,3.8-15,1.6c-9.1-2.1-13.1-7.4-14.6-9.5c-1.5-2.1-5.8-9.8-5.4-20C10.3-142.6,12-154.3,9.2-157.9"/>
		<g>
			<g>
				<path fill="#3D6D98" d="M18.4-69.9c-7.8-11-12-24.9-12-24.9C23-78.8,38.3-80,44.6-81.4c2.1,6.6,10.2,22.7,12,25.8
					C43.8-49.1,26-59.3,18.4-69.9z M95.4-84.1C88-93,81.1-99.1,75-103.8c3.2-5.5,9.2-20-0.7-41.1c0,0,11.8,8.4,19.6,19.4
					C101.5-114.9,105.5-94.6,95.4-84.1z"/>
			</g>
		</g>
		
			<linearGradient id="SVGID_2_" gradientUnits="userSpaceOnUse" x1="-347.1671" y1="-540.9423" x2="-303.2377" y2="-566.3049" gradientTransform="matrix(0.9993 -3.845349e-02 3.845349e-02 0.9993 436.0338 490.4731)">
			<stop  offset="0" style="stop-color:#559CC9"/>
			<stop  offset="0.3353" style="stop-color:#5499C6"/>
			<stop  offset="0.5636" style="stop-color:#5091BD"/>
			<stop  offset="0.7593" style="stop-color:#4883AE"/>
			<stop  offset="0.8982" style="stop-color:#41749E"/>
		</linearGradient>
		<path fill="url(#SVGID_2_)" d="M100.6-35.4c-3.4,2.5-4.2,7.2-1.7,10.6c2.5,3.4,7.1,4.1,10.5,1.7s4.2-7.2,1.7-10.6
			C108.6-37.2,104-37.9,100.6-35.4 M95.4-84.1c4.1,4.7,8.6,10.3,13.3,16.7C132.3-34.9,125.9,0,125.9,0S91.4-4.6,68.2-37.5
			c-4.7-6.6-8.4-12.6-11.6-18.1c-1.9-3-9.9-19.1-12-25.8c-1.7-5.1-2.1-7.9-2.1-7.9c2.9-4.7,11.7-11.2,11.7-11.2s8.8-6.5,14-7.9
			c0,0,2.5,1.2,6.8,4.6C81.1-99.1,88-93,95.4-84.1"/>
	</g>
	<polygon display="none" fill="none" points="-0.5,-0.5 127.5,-0.5 127.5,-168.5 -0.5,-168.5 	"/>
</symbol>
<g id="Layer_2" display="none">
</g>
<g id="new-facebook-event-banner-template_x5F_714x264_xA0_Image_1_">
</g>
<g id="Layer_3">
</g>
<g id="Hide_before_exporting">
</g>
<g id="Layer_5">
</g>
<g id="Layer_6">
	
		<use xlink:href="#rocket"  width="128" height="168.8" x="-0.5" y="-168.8" transform="matrix(1 0 0 -1 4.732227e-04 3.436708e-04)" overflow="visible"/>
</g>
</svg>
